<svg viewBox="0 0 256.28 170.66" xmlns="http://www.w3.org/2000/svg" xmlns:xlink="http://www.w3.org/1999/xlink"><defs><linearGradient id="a" x1="81.74" x2="115.76" y1="75.17" y2="66.92" gradientUnits="userSpaceOnUse"><stop stop-color="#333" stop-opacity="0" offset=".75"/><stop stop-color="#333" stop-opacity=".3" offset="1"/></linearGradient><linearGradient id="b" x1="141.44" x2="176.36" y1="72.4" y2="-1.24" xlink:href="#a"/></defs><g style="isolation:isolate"><g data-name="Ebene 1"><path d="m121.53 9.73-25 84.69a3 3 0 01-2.9 2.21h-24.34a3 3 0 01-2.92-2.32l-15.24-57.45h-.27l-27 126.74a3 3 0 01-2.94 2.4h-17.92a3 3 0 01-2.92-3.7l35.14-150.3a3 3 0 012.91-2.3h26.18a3 3 0 012.94 2.41l13.24 59h.28l16-57.35a5.31 5.31 0 015.15-4z" fill="#007934"/><g style="mix-blend-mode:multiply"><path d="m121.53 9.73-25 84.69a3 3 0 01-2.9 2.21h-24.34a3 3 0 01-2.92-2.32l-15.24-57.45h-.27l-27 126.74a3 3 0 01-2.94 2.4h-17.92a3 3 0 01-2.92-3.7l35.14-150.3a3 3 0 012.91-2.3h26.18a3 3 0 012.94 2.41l13.24 59h.28l16-57.35a5.31 5.31 0 015.15-4z" fill="url(#a)"/></g><path d="M192.16,0H179a14,14,0,0,0-13.65,17.26l12.12,49.8c3.62,14.14-2.25,17.73-10.79,17.73-8.81,0-17.69-3.64-21.16-17.19-4.6-18-9-35.3-13.43-53.8a5.28,5.28,0,0,0-5.15-4.07H102a5.43,5.43,0,0,1,5.28,4.16c4.31,17.83,8.38,34.45,13.59,55.63,6.66,27.09,27.08,37.73,50.67,37.73,22.65,0,36.59-12.89,30.61-37.31L189.34,17.28C186.82,7,196.38,0,199.06,2.52A9.7,9.7,0,0,0,192.16,0" fill="#34b233"/><path d="M192.16,0H179a14,14,0,0,0-13.65,17.26l12.12,49.8c3.62,14.14-2.25,17.73-10.79,17.73-8.81,0-17.69-3.64-21.16-17.19-4.6-18-9-35.3-13.43-53.8a5.28,5.28,0,0,0-5.15-4.07H102a5.43,5.43,0,0,1,5.28,4.16c4.31,17.83,8.38,34.45,13.59,55.63,6.66,27.09,27.08,37.73,50.67,37.73,22.65,0,36.59-12.89,30.61-37.31L189.34,17.28C186.82,7,196.38,0,199.06,2.52A9.7,9.7,0,0,0,192.16,0" fill="url(#b)" style="mix-blend-mode:multiply"/><path d="M192.16,0H179a14,14,0,0,1,14,14l2.64-8.17,6.66,2.74S201,0,192.16,0Z" fill="#ff7f45"/><path d="M66.17,123.43c.36.62.76,1.38,1.2,2.29s.9,1.84,1.35,2.84.92,2,1.37,3,.86,2,1.24,2.84l1.23-2.84c.44-1,.89-2,1.35-3s.91-1.94,1.35-2.84.85-1.67,1.21-2.29h2.79c.15,1.25.29,2.57.42,4s.26,2.83.37,4.3.2,2.94.3,4.43.17,2.93.23,4.33h-3q-.11-3-.24-6.12c-.09-2.09-.23-4.13-.42-6.09l-.63,1.35c-.25.52-.51,1.09-.79,1.71s-.56,1.25-.85,1.9-.56,1.29-.84,1.91-.52,1.19-.74,1.72l-.59,1.36H70.12l-.59-1.37c-.22-.54-.47-1.12-.74-1.74l-.84-1.9c-.29-.66-.57-1.29-.85-1.89l-.78-1.71c-.25-.53-.46-1-.64-1.34-.19,2-.33,4-.42,6.09s-.17,4.14-.24,6.12H62c.06-1.4.14-2.86.23-4.37s.2-3,.31-4.49.22-2.92.36-4.31.27-2.68.42-3.86Z" fill="#333"/><path d="m83.16 134.1a8.05 8.05 0 01.51-3 6.06 6.06 0 011.33-2.1 5.48 5.48 0 011.92-1.28 5.84 5.84 0 012.21-.43 5.28 5.28 0 014.14 1.65 7.1 7.1 0 011.49 4.91v.56s0 .38 0 .55h-8.52a3.35 3.35 0 001.09 2.39 4.15 4.15 0 002.82.85 9.21 9.21 0 002-.19 8 8 0 001.42-.42l.39 2.43a4.69 4.69 0 01-.68.26c-.28.09-.61.17-1 .25s-.76.13-1.19.18a11.2 11.2 0 01-1.3.07 7.79 7.79 0 01-3-.5 5.5 5.5 0 01-2.07-1.4 5.72 5.72 0 01-1.2-2.11 8.79 8.79 0 01-.36-2.67zm8.63-1.33a4.09 4.09 0 00-.17-1.17 2.74 2.74 0 00-.5-1 2.37 2.37 0 00-.81-.63 2.57 2.57 0 00-1.15-.24 2.65 2.65 0 00-1.16.27 2.56 2.56 0 00-.87.68 2.91 2.91 0 00-.56.95 5.29 5.29 0 00-.27 1.11z" fill="#333"/><path d="m108.56 140.07a16.67 16.67 0 01-2.23.49 16.94 16.94 0 01-2.81.22 7.51 7.51 0 01-2.73-.46 5.58 5.58 0 01-2.05-1.32 5.93 5.93 0 01-1.31-2.12 8.08 8.08 0 01-.45-2.79 9.54 9.54 0 01.38-2.76 6 6 0 011.12-2.13 5 5 0 011.79-1.36 5.87 5.87 0 012.44-.48 5.43 5.43 0 011.64.22 7.32 7.32 0 011.23.49v-6.17l3-.49zm-8.56-6.07a4.66 4.66 0 00.93 3.08 3.16 3.16 0 002.58 1.12 10.55 10.55 0 001.22-.06 7.93 7.93 0 00.82-.13v-7.38a4.39 4.39 0 00-1-.5 4 4 0 00-1.39-.24 2.66 2.66 0 00-2.37 1.11 5.29 5.29 0 00-.79 3z" fill="#333"/><path d="m115.36 123.85a1.71 1.71 0 01-.54 1.33 1.85 1.85 0 01-1.27.49 1.92 1.92 0 01-1.31-.49 1.93 1.93 0 010-2.68 1.88 1.88 0 011.31-.5 1.82 1.82 0 011.27.5 1.71 1.71 0 01.54 1.35zm-.36 16.61h-3v-12.85h3z" fill="#333"/><path d="m117.72 134.05a7.8 7.8 0 01.45-2.67 6.32 6.32 0 011.26-2.15 5.82 5.82 0 012-1.42 6.43 6.43 0 012.65-.52 9 9 0 013.44.66l-.64 2.44a6.45 6.45 0 00-1.17-.37 6.08 6.08 0 00-1.38-.15 3.26 3.26 0 00-2.66 1.09 4.69 4.69 0 00-.91 3.09 4.85 4.85 0 00.86 3 3.42 3.42 0 002.9 1.12 8.29 8.29 0 001.5-.14 7.92 7.92 0 001.28-.37l.42 2.45a5.94 5.94 0 01-1.49.45 10.64 10.64 0 01-2 .19 7.44 7.44 0 01-2.87-.5 5.42 5.42 0 01-2-1.4 5.81 5.81 0 01-1.19-2.14 8.62 8.62 0 01-.45-2.66z" fill="#333"/><path d="m134.68 127.29a7.22 7.22 0 012.49.37 3.7 3.7 0 012.47 2.64 8 8 0 01.26 2.08v7.79c-.46.1-1.16.22-2.08.36a22.72 22.72 0 01-3.14.2 9.24 9.24 0 01-2.11-.22 4.37 4.37 0 01-1.64-.71 3.3 3.3 0 01-1.05-1.28 4.33 4.33 0 01-.38-1.94 3.72 3.72 0 01.43-1.87 3.45 3.45 0 011.16-1.24 5.12 5.12 0 011.71-.69 9.64 9.64 0 012-.21 9.38 9.38 0 011 .07 11.32 11.32 0 011.16.2v-.49a3.93 3.93 0 00-.12-1 2.15 2.15 0 00-.43-.82 2 2 0 00-.82-.56 3.48 3.48 0 00-1.26-.19 12.13 12.13 0 00-1.89.14 8.75 8.75 0 00-1.41.35l-.36-2.41a11.45 11.45 0 011.64-.39 12.12 12.12 0 012.37-.18zm.25 11.09a10.91 10.91 0 002.09-.15v-3.3a6.32 6.32 0 00-.71-.14 6.48 6.48 0 00-2 0 3.12 3.12 0 00-.91.27 1.59 1.59 0 00-.65.55 1.52 1.52 0 00-.25.9 1.56 1.56 0 00.67 1.46 3.39 3.39 0 001.76.41z" fill="#333"/><path d="m147.37 140.71a8.2 8.2 0 01-2.2-.29 3.38 3.38 0 01-1.39-.78 2.66 2.66 0 01-.73-1.25 6.35 6.35 0 01-.21-1.71v-14.8l3-.49v14.72a4.58 4.58 0 00.08.91 1.34 1.34 0 00.91 1 4.9 4.9 0 001 .21z" fill="#333"/><path d="m69 166.43a8.12 8.12 0 01-3-.5 5.64 5.64 0 01-2.08-1.41 5.89 5.89 0 01-1.22-2.14 8.92 8.92 0 01-.39-2.71v-10.67h3.12v10.35a6.74 6.74 0 00.26 2 3.46 3.46 0 00.74 1.34 3 3 0 001.13.76 4.18 4.18 0 001.46.24 4.38 4.38 0 001.48-.24 3 3 0 001.14-.76 3.59 3.59 0 00.74-1.34 6.77 6.77 0 00.25-2v-10.35h3.13v10.64a8.61 8.61 0 01-.41 2.71 5.91 5.91 0 01-1.23 2.14 5.63 5.63 0 01-2.1 1.41 8.34 8.34 0 01-3.02.53z" fill="#333"/><path d="m79 153.63a18.65 18.65 0 012.23-.47 19.08 19.08 0 013-.22 6.92 6.92 0 012.63.43 4.08 4.08 0 011.68 1.2 4.58 4.58 0 01.89 1.87 10.57 10.57 0 01.26 2.4v7.22h-3v-6.76a9.77 9.77 0 00-.13-1.75 3.13 3.13 0 00-.44-1.18 1.79 1.79 0 00-.84-.67 3.48 3.48 0 00-1.29-.21 9.75 9.75 0 00-1.18.08l-.91.12v10.37h-2.9z" fill="#333"/><path d="m96.27 149.45a1.71 1.71 0 01-.54 1.32 1.86 1.86 0 01-1.28.5 1.88 1.88 0 01-1.31-.5 1.68 1.68 0 01-.54-1.32 1.71 1.71 0 01.54-1.35 1.88 1.88 0 011.31-.5 1.86 1.86 0 011.28.5 1.75 1.75 0 01.54 1.35zm-.27 16.61h-3v-12.85h3z" fill="#333"/><path d="m103.31 166.06q-1.23-2.52-2.53-5.81a72.55 72.55 0 01-2.35-7h3.17c.18.72.39 1.49.63 2.32s.49 1.66.76 2.48.55 1.63.84 2.41.56 1.48.8 2.1c.25-.62.52-1.32.79-2.1s.56-1.58.83-2.41.53-1.65.78-2.48.46-1.6.64-2.32h3.07a72.55 72.55 0 01-2.35 7q-1.31 3.28-2.53 5.81z" fill="#333"/><path d="m111.73 159.7a8.06 8.06 0 01.5-3 6.21 6.21 0 011.34-2.12 5.58 5.58 0 011.92-1.28 5.84 5.84 0 012.21-.43 5.28 5.28 0 014.14 1.65 7.1 7.1 0 011.49 4.91v.56s0 .38 0 .55h-8.53a3.35 3.35 0 001.09 2.39 4.15 4.15 0 002.82.85 9.37 9.37 0 002-.19 9.13 9.13 0 001.41-.42l.39 2.43a5 5 0 01-.67.26c-.29.09-.62.17-1 .25s-.76.13-1.19.18a11.2 11.2 0 01-1.3.07 7.79 7.79 0 01-3-.5 5.5 5.5 0 01-2.07-1.4 5.68 5.68 0 01-1.2-2.12 8.68 8.68 0 01-.35-2.64zm8.62-1.33a3.76 3.76 0 00-.17-1.17 2.74 2.74 0 00-.5-1 2.42 2.42 0 00-.81-.64 2.94 2.94 0 00-2.35 0 2.56 2.56 0 00-.87.68 2.91 2.91 0 00-.56.95 5.29 5.29 0 00-.27 1.11z" fill="#333"/><path d="m133.18 155.89a9.13 9.13 0 00-1-.26 7.39 7.39 0 00-1.51-.14 6.51 6.51 0 00-1 .1 6.83 6.83 0 00-.78.18v10.29h-3v-12.24a17 17 0 012.15-.6 13.27 13.27 0 012.86-.28h.69l.79.1c.26 0 .52.09.76.15l.59.16z" fill="#333"/><path d="m139 163.93a3.86 3.86 0 001.72-.29 1 1 0 00.54-1 1.26 1.26 0 00-.58-1.06 8.51 8.51 0 00-1.9-.9c-.54-.2-1-.41-1.49-.63a5 5 0 01-1.17-.78 3.23 3.23 0 01-.77-1.07 3.64 3.64 0 01-.28-1.53 3.34 3.34 0 011.3-2.79 5.6 5.6 0 013.54-1 12.13 12.13 0 013.71.61l-.54 2.41a7.71 7.71 0 00-1.25-.4 7.22 7.22 0 00-1.77-.19 3.16 3.16 0 00-1.48.31 1 1 0 00-.56 1 1.25 1.25 0 00.11.56 1.16 1.16 0 00.38.46 4.05 4.05 0 00.71.41 10.1 10.1 0 001.08.43 16.3 16.3 0 011.8.78 4.74 4.74 0 011.21.86 3 3 0 01.71 1.09 4.57 4.57 0 01.22 1.48 3.18 3.18 0 01-1.37 2.79 6.8 6.8 0 01-3.89.94 10.64 10.64 0 01-2.73-.28c-.69-.19-1.17-.34-1.45-.45l.51-2.49a12.93 12.93 0 001.59.52 8.28 8.28 0 002.1.21z" fill="#333"/><path d="m150.24 149.45a1.68 1.68 0 01-.54 1.32 1.82 1.82 0 01-1.28.5 1.87 1.87 0 01-1.3-.5 1.68 1.68 0 01-.54-1.32 1.71 1.71 0 01.54-1.35 1.87 1.87 0 011.3-.5 1.82 1.82 0 011.28.5 1.71 1.71 0 01.54 1.35zm-.32 16.61h-3v-12.85h3z" fill="#333"/><path d="m153.51 149.82 3-.5v3.89h4.57v2.48h-4.57v5.24a3.78 3.78 0 00.49 2.21 1.93 1.93 0 001.67.66 5.27 5.27 0 001.44-.17 8.33 8.33 0 001-.32l.49 2.36a10.9 10.9 0 01-1.35.46 7.59 7.59 0 01-2 .23 6.12 6.12 0 01-2.25-.36 3.45 3.45 0 01-1.47-1.07 4.27 4.27 0 01-.76-1.7 11 11 0 01-.22-2.27z" fill="#333"/><path d="m175 153.21a94.14 94.14 0 01-4.61 13.27 13.57 13.57 0 01-1 1.89 5.72 5.72 0 01-1.16 1.31 4.26 4.26 0 01-1.43.75 6.6 6.6 0 01-1.82.23 6.23 6.23 0 01-1.36-.15 4.41 4.41 0 01-1-.32l.54-2.38a4.77 4.77 0 001.75.34 2.7 2.7 0 001.81-.55 4.52 4.52 0 001.15-1.71q-1.41-2.7-2.7-5.9a67.29 67.29 0 01-2.31-6.78h3.14c.17.69.37 1.43.61 2.24s.49 1.61.77 2.44.58 1.65.89 2.47.63 1.58.94 2.29q.78-2.19 1.47-4.66c.46-1.65.87-3.24 1.25-4.78z" fill="#333"/><path d="m191.88 159.62a8.4 8.4 0 01-.44 2.78 6.22 6.22 0 01-1.26 2.14 5.67 5.67 0 01-2 1.38 6.7 6.7 0 01-5 0 5.73 5.73 0 01-1.94-1.38 6.22 6.22 0 01-1.24-2.14 8.57 8.57 0 010-5.54 6.13 6.13 0 011.27-2.13 5.62 5.62 0 012-1.36 6.27 6.27 0 012.48-.48 6.44 6.44 0 012.5.48 5.49 5.49 0 011.95 1.36 6.45 6.45 0 011.27 2.13 8.07 8.07 0 01.41 2.76zm-3 0a5 5 0 00-.82-3 2.92 2.92 0 00-4.6 0 5 5 0 00-.82 3 5.14 5.14 0 00.82 3.08 2.91 2.91 0 004.6 0 5.14 5.14 0 00.77-3.08z" fill="#333"/><path d="m199.57 147a8.18 8.18 0 011.82.18 10.66 10.66 0 011.18.34l-.57 2.48a5.52 5.52 0 00-1-.32 5.68 5.68 0 00-1.2-.12 3.07 3.07 0 00-1.2.21 2 2 0 00-.79.58 2.35 2.35 0 00-.42.9 5.11 5.11 0 00-.12 1.14v.86h4.73v2.48h-4.67v10.37h-3v-13.8a5.54 5.54 0 011.3-3.9 5.1 5.1 0 013.94-1.4z" fill="#333"/><path d="m215.8 151.36a5 5 0 00-4 1.64 6.76 6.76 0 00-1.39 4.53 9 9 0 00.33 2.52 5.55 5.55 0 001 2 4.5 4.5 0 001.63 1.26 5.17 5.17 0 002.27.46c.54 0 1 0 1.4-.06a6.25 6.25 0 00.93-.16v-6.12h3.03v8.18a12.88 12.88 0 01-2.16.54 18.41 18.41 0 01-3.52.3 9.26 9.26 0 01-3.36-.59 7 7 0 01-2.6-1.72 8 8 0 01-1.66-2.78 11.3 11.3 0 01-.59-3.79 10.33 10.33 0 01.65-3.78 8.17 8.17 0 011.79-2.79 7.47 7.47 0 012.65-1.73 8.8 8.8 0 013.25-.59 12.12 12.12 0 012.1.16 13.16 13.16 0 011.58.35 6.06 6.06 0 011.1.42l.6.32-.93 2.53a8.17 8.17 0 00-1.84-.75 8.61 8.61 0 00-2.26-.35z" fill="#333"/><path d="m231.72 155.89a9.13 9.13 0 00-1-.26 7.39 7.39 0 00-1.51-.14 6.51 6.51 0 00-1 .1 6.83 6.83 0 00-.78.18v10.29h-3v-12.24a17 17 0 012.15-.6 13.27 13.27 0 012.86-.28h.69l.79.1c.26 0 .51.09.76.15l.59.16z" fill="#333"/><path d="m238.39 152.89a7.16 7.16 0 012.48.37 3.93 3.93 0 011.61 1 3.85 3.85 0 01.86 1.61 8 8 0 01.26 2.08v7.79c-.46.1-1.16.22-2.08.36a22.67 22.67 0 01-3.13.2 9.27 9.27 0 01-2.12-.22 4.25 4.25 0 01-1.63-.71 3.32 3.32 0 01-1.06-1.28 4.47 4.47 0 01-.38-1.94 3.72 3.72 0 01.43-1.87 3.47 3.47 0 011.17-1.24 5.06 5.06 0 011.7-.69 9.6 9.6 0 013.07-.15c.36.05.74.12 1.15.21v-.41a3.93 3.93 0 00-.12-1 2 2 0 00-.43-.82 2.06 2.06 0 00-.81-.56 3.58 3.58 0 00-1.27-.19 12.13 12.13 0 00-1.89.14 8.34 8.34 0 00-1.4.35l-.37-2.41a11.45 11.45 0 011.64-.39 12.3 12.3 0 012.32-.23zm.24 11.08a11.08 11.08 0 002.09-.14v-3.3a4.4 4.4 0 00-.71-.14 6.53 6.53 0 00-1-.08 6.85 6.85 0 00-1 .08 2.85 2.85 0 00-.91.27 1.59 1.59 0 00-.65.55 1.52 1.52 0 00-.25.9 1.56 1.56 0 00.67 1.46 3.42 3.42 0 001.76.43z" fill="#333"/><path d="m256.13 155.3c-.33.34-.76.83-1.29 1.45s-1.1 1.31-1.71 2.07-1.21 1.56-1.83 2.39-1.17 1.62-1.66 2.37h6.64v2.48h-10.23v-1.84a21.09 21.09 0 011.36-2.14c.54-.77 1.09-1.54 1.67-2.32s1.14-1.52 1.71-2.23 1.07-1.31 1.51-1.84h-5.93v-2.48h9.76z" fill="#333"/></g></g></svg>
