<svg viewBox="0 0 242.95 166.45" xmlns="http://www.w3.org/2000/svg" xmlns:xlink="http://www.w3.org/1999/xlink"><defs><linearGradient id="a" x1="81.74" x2="115.76" y1="75.17" y2="66.92" gradientUnits="userSpaceOnUse"><stop stop-color="#333" stop-opacity="0" offset=".75"/><stop stop-color="#333" stop-opacity=".3" offset="1"/></linearGradient><linearGradient id="b" x1="141.44" x2="176.36" y1="72.4" y2="-1.24" xlink:href="#a"/></defs><g style="isolation:isolate"><g data-name="Ebene 1"><path d="m121.53 9.73-25 84.69a3 3 0 01-2.9 2.21h-24.34a3 3 0 01-2.92-2.32l-15.24-57.45h-.27l-27 126.74a3 3 0 01-2.94 2.4h-17.92a3 3 0 01-2.92-3.7l35.14-150.3a3 3 0 012.91-2.3h26.18a3 3 0 012.94 2.41l13.24 59h.28l16-57.35a5.31 5.31 0 015.15-4z" fill="#007934"/><g style="mix-blend-mode:multiply"><path d="m121.53 9.73-25 84.69a3 3 0 01-2.9 2.21h-24.34a3 3 0 01-2.92-2.32l-15.24-57.45h-.27l-27 126.74a3 3 0 01-2.94 2.4h-17.92a3 3 0 01-2.92-3.7l35.14-150.3a3 3 0 012.91-2.3h26.18a3 3 0 012.94 2.41l13.24 59h.28l16-57.35a5.31 5.31 0 015.15-4z" fill="url(#a)"/></g><path d="M192.16,0H179a14,14,0,0,0-13.65,17.26l12.12,49.8c3.62,14.14-2.25,17.73-10.79,17.73-8.81,0-17.69-3.64-21.16-17.19-4.6-18-9-35.3-13.43-53.8a5.28,5.28,0,0,0-5.15-4.07H102a5.43,5.43,0,0,1,5.28,4.16c4.31,17.83,8.38,34.45,13.59,55.63,6.66,27.09,27.08,37.73,50.67,37.73,22.65,0,36.59-12.89,30.61-37.31L189.34,17.28C186.82,7,196.38,0,199.06,2.52A9.7,9.7,0,0,0,192.16,0" fill="#34b233"/><path d="M192.16,0H179a14,14,0,0,0-13.65,17.26l12.12,49.8c3.62,14.14-2.25,17.73-10.79,17.73-8.81,0-17.69-3.64-21.16-17.19-4.6-18-9-35.3-13.43-53.8a5.28,5.28,0,0,0-5.15-4.07H102a5.43,5.43,0,0,1,5.28,4.16c4.31,17.83,8.38,34.45,13.59,55.63,6.66,27.09,27.08,37.73,50.67,37.73,22.65,0,36.59-12.89,30.61-37.31L189.34,17.28C186.82,7,196.38,0,199.06,2.52A9.7,9.7,0,0,0,192.16,0" fill="url(#b)" style="mix-blend-mode:multiply"/><path d="M192.16,0H179a14,14,0,0,1,14,14l2.64-8.17,6.66,2.74S201,0,192.16,0Z" fill="#ff7f45"/><path d="m66.18 123.43c.36.63.76 1.39 1.21 2.29s.89 1.85 1.35 2.84.91 2 1.36 3l1.24 2.84c.38-.87.79-1.81 1.23-2.84s.89-2 1.35-3 .91-1.94 1.35-2.84.85-1.66 1.21-2.29h2.79c.15 1.25.29 2.57.43 4s.25 2.84.36 4.3.21 3 .3 4.43.17 2.93.24 4.34h-3q-.1-3-.24-6.12t-.41-6.1c-.18.38-.4.83-.64 1.35s-.51 1.1-.79 1.71-.56 1.25-.85 1.91l-.83 1.9-.84 1.69-.59 1.37h-2.27c-.17-.38-.36-.84-.59-1.38s-.48-1.12-.75-1.73l-.8-1.91c-.28-.65-.57-1.29-.85-1.89s-.54-1.18-.78-1.71-.46-1-.64-1.34q-.27 3-.41 6.1t-.32 6.12h-3q.1-2.11.24-4.38c.09-1.51.19-3 .3-4.48s.23-2.93.36-4.32.28-2.68.43-3.86z" fill="#333"/><path d="m83.33 134.1a8 8 0 01.5-3 6.1 6.1 0 011.34-2.1 5.48 5.48 0 011.92-1.28 6 6 0 012.21-.43 5.28 5.28 0 014.14 1.65 7.14 7.14 0 011.49 4.91v.56s0 .39 0 .55h-8.53a3.39 3.39 0 001.09 2.4 4.2 4.2 0 002.82.85 9.18 9.18 0 002-.2 8 8 0 001.42-.42l.39 2.43a3.92 3.92 0 01-.67.26c-.29.09-.62.17-1 .25s-.76.13-1.19.18a11.2 11.2 0 01-1.3.08 7.78 7.78 0 01-3-.51 5.38 5.38 0 01-2.07-1.4 5.72 5.72 0 01-1.2-2.11 8.7 8.7 0 01-.36-2.67zm8.67-1.33a3.66 3.66 0 00-.17-1.16 2.74 2.74 0 00-.5-1 2.3 2.3 0 00-.81-.64 2.54 2.54 0 00-1.15-.24 2.65 2.65 0 00-1.2.26 2.56 2.56 0 00-.87.68 3.07 3.07 0 00-.56 1 5.36 5.36 0 00-.27 1.1z" fill="#333"/><path d="m108.94 140.07a17.78 17.78 0 01-2.23.5 18.08 18.08 0 01-2.81.22 7.51 7.51 0 01-2.73-.47 5.66 5.66 0 01-2-1.34 5.82 5.82 0 01-1.3-2.11 7.93 7.93 0 01-.46-2.79 9.56 9.56 0 01.38-2.77 6 6 0 011.12-2.13 5 5 0 011.79-1.36 5.87 5.87 0 012.44-.48 5.43 5.43 0 011.64.22 7.32 7.32 0 011.23.49v-6.17l3-.49zm-8.53-6.07a4.71 4.71 0 00.93 3.09 3.22 3.22 0 002.58 1.12 8.54 8.54 0 001.22-.07 7.51 7.51 0 00.86-.14v-7.38a4.82 4.82 0 00-1-.5 4.27 4.27 0 00-1.39-.23 2.67 2.67 0 00-2.37 1.1 5.29 5.29 0 00-.83 3.01z" fill="#333"/><path d="m116 123.85a1.71 1.71 0 01-.54 1.33 1.94 1.94 0 01-2.58 0 1.71 1.71 0 01-.54-1.33 1.74 1.74 0 01.54-1.35 1.94 1.94 0 012.58 0 1.74 1.74 0 01.54 1.35zm-.32 16.62h-3v-12.86h3z" fill="#333"/><path d="m128.5 129.7c-.32.34-.76.83-1.29 1.45s-1.1 1.32-1.71 2.08-1.21 1.56-1.83 2.38-1.16 1.62-1.66 2.37h6.64v2.49h-10.23v-1.85c.37-.65.82-1.37 1.36-2.14s1.1-1.54 1.67-2.32 1.14-1.52 1.71-2.22 1.07-1.32 1.51-1.85h-5.92v-2.48h9.75z" fill="#333"/><path d="m134.72 123.85a1.71 1.71 0 01-.54 1.33 1.94 1.94 0 01-2.58 0 1.71 1.71 0 01-.54-1.33 1.74 1.74 0 01.54-1.35 1.94 1.94 0 012.58 0 1.74 1.74 0 01.54 1.35zm-.32 16.62h-3v-12.86h3z" fill="#333"/><path d="m138.19 128a21.43 21.43 0 012.23-.47 19.08 19.08 0 013.05-.22 6.92 6.92 0 012.63.43 4.11 4.11 0 011.69 1.21 4.59 4.59 0 01.88 1.86 10.57 10.57 0 01.26 2.4v7.23h-3v-6.76a9.72 9.72 0 00-.14-1.76 3.2 3.2 0 00-.44-1.18 1.83 1.83 0 00-.84-.66 3.48 3.48 0 00-1.29-.21 9.68 9.68 0 00-1.18.07l-.91.12v10.38h-3z" fill="#333"/><path d="m155.88 123.85a1.71 1.71 0 01-.54 1.33 1.81 1.81 0 01-1.27.49 1.87 1.87 0 01-1.31-.49 1.71 1.71 0 01-.54-1.33 1.74 1.74 0 01.54-1.35 1.87 1.87 0 011.31-.49 1.81 1.81 0 011.27.49 1.74 1.74 0 01.54 1.35zm-.32 16.62h-3v-12.86h3z" fill="#333"/><path d="m162.57 138.33a4 4 0 001.72-.28 1 1 0 00.54-1 1.25 1.25 0 00-.58-1 8.45 8.45 0 00-1.9-.91c-.54-.2-1-.41-1.49-.63a5 5 0 01-1.16-.77 3.21 3.21 0 01-.78-1.07 3.72 3.72 0 01-.28-1.54 3.34 3.34 0 011.3-2.79 5.6 5.6 0 013.54-1 10.84 10.84 0 012.16.21 9.35 9.35 0 011.55.41l-.54 2.4a7.43 7.43 0 00-3-.58 3.16 3.16 0 00-1.48.3 1 1 0 00-.56.95 1.25 1.25 0 00.11.56 1.16 1.16 0 00.38.46 4 4 0 00.71.42c.3.14.66.28 1.08.43a16.43 16.43 0 011.8.77 5.27 5.27 0 011.22.86 3 3 0 01.69 1.1 4.24 4.24 0 01.23 1.47 3.18 3.18 0 01-1.37 2.79 6.79 6.79 0 01-3.89.95 10.58 10.58 0 01-2.73-.29 13.48 13.48 0 01-1.45-.45l.51-2.48a13 13 0 001.59.51 7.85 7.85 0 002.08.2z" fill="#333"/><path d="m169.87 134.05a8 8 0 01.44-2.67 6.51 6.51 0 011.27-2.15 5.87 5.87 0 012-1.42 6.48 6.48 0 012.66-.52 8.86 8.86 0 013.44.67l-.64 2.43a6.71 6.71 0 00-1.17-.37 6.17 6.17 0 00-1.39-.15 3.24 3.24 0 00-2.65 1.1 4.66 4.66 0 00-.91 3.08 4.9 4.9 0 00.86 3 3.45 3.45 0 002.9 1.12 7.48 7.48 0 001.5-.15 7 7 0 001.28-.37l.42 2.46a6.46 6.46 0 01-1.49.44 10.71 10.71 0 01-2 .2 7.4 7.4 0 01-2.87-.51 5.31 5.31 0 01-2-1.4 5.83 5.83 0 01-1.2-2.14 8.88 8.88 0 01-.45-2.65z" fill="#333"/><path d="m182.18 140.47v-18.59l3-.49v6.37a8.49 8.49 0 011.14-.3 7.2 7.2 0 011.29-.12 6.6 6.6 0 012.57.43 4.07 4.07 0 011.62 1.23 4.6 4.6 0 01.87 1.85 10.53 10.53 0 01.26 2.41v7.23h-3v-6.76a9.81 9.81 0 00-.13-1.76 3 3 0 00-.45-1.18 1.78 1.78 0 00-.82-.66 3.39 3.39 0 00-1.28-.21 6.26 6.26 0 00-1.2.12c-.41.08-.71.16-.91.22v10.23z" fill="#333"/><path d="m195.78 134.1a8 8 0 01.5-3 6.25 6.25 0 011.34-2.13 5.58 5.58 0 011.92-1.28 6.07 6.07 0 012.21-.43 5.28 5.28 0 014.14 1.65 7.14 7.14 0 011.49 4.91v.56s0 .39 0 .55h-8.48a3.43 3.43 0 001.09 2.4 4.2 4.2 0 002.82.85 9.35 9.35 0 002-.2 7.62 7.62 0 001.41-.42l.39 2.43a3.92 3.92 0 01-.67.26c-.29.09-.62.17-1 .25s-.76.13-1.19.18a11.07 11.07 0 01-1.3.08 7.82 7.82 0 01-2.95-.51 5.35 5.35 0 01-2.06-1.4 5.6 5.6 0 01-1.21-2.11 8.7 8.7 0 01-.45-2.64zm8.62-1.33a3.66 3.66 0 00-.17-1.16 2.74 2.74 0 00-.5-1 2.3 2.3 0 00-.81-.64 2.52 2.52 0 00-1.14-.24 2.73 2.73 0 00-1.21.26 2.77 2.77 0 00-.87.68 3 3 0 00-.55 1 4.81 4.81 0 00-.28 1.1z" fill="#333"/><path d="m69 166.45a8 8 0 01-3-.51 5.41 5.41 0 01-2.08-1.41 5.73 5.73 0 01-1.21-2.14 8.59 8.59 0 01-.4-2.7v-10.64h3.12v10.34a6.74 6.74 0 00.26 2 3.52 3.52 0 00.74 1.34 2.86 2.86 0 001.13.76 4 4 0 001.46.25 4.1 4.1 0 001.48-.25 2.83 2.83 0 001.14-.76 3.39 3.39 0 00.74-1.34 6.74 6.74 0 00.26-2v-10.34h3.12v10.64a8.59 8.59 0 01-.41 2.7 5.91 5.91 0 01-1.23 2.14 5.33 5.33 0 01-2.1 1.41 8.13 8.13 0 01-3.02.51z" fill="#333"/><path d="m79.59 153.64a19.15 19.15 0 012.24-.46 18.81 18.81 0 013-.23 7.13 7.13 0 012.63.43 4.11 4.11 0 011.69 1.21 4.51 4.51 0 01.88 1.87 10.48 10.48 0 01.26 2.39v7.23h-3v-6.76a9.8 9.8 0 00-.14-1.76 3.27 3.27 0 00-.44-1.18 1.78 1.78 0 00-.84-.66 3.48 3.48 0 00-1.29-.21c-.37 0-.77 0-1.18.07s-.71.09-.91.13v10.37h-3z" fill="#333"/><path d="m97.29 149.46a1.71 1.71 0 01-.54 1.33 1.83 1.83 0 01-1.28.49 1.87 1.87 0 01-1.31-.49 1.71 1.71 0 01-.54-1.33 1.74 1.74 0 01.54-1.35 1.87 1.87 0 011.31-.49 1.83 1.83 0 011.28.49 1.74 1.74 0 01.54 1.35zm-.29 16.62h-3v-12.86h3z" fill="#333"/><path d="m104.06 166.08q-1.23-2.54-2.53-5.81a72.77 72.77 0 01-2.35-7.05h3.17c.18.73.39 1.5.63 2.33s.49 1.65.76 2.48.55 1.63.84 2.41.56 1.48.8 2.1c.25-.62.52-1.32.79-2.1s.56-1.58.83-2.41.53-1.66.78-2.48.46-1.6.64-2.33h3.07a72.77 72.77 0 01-2.35 7.05q-1.31 3.27-2.53 5.81z" fill="#333"/><path d="m112.67 159.71a8 8 0 01.51-3 6.2 6.2 0 011.34-2.13 5.58 5.58 0 011.91-1.28 6.09 6.09 0 012.22-.43 5.28 5.28 0 014.14 1.65 7.15 7.15 0 011.49 4.92v.55s0 .39 0 .55h-8.48a3.37 3.37 0 001.09 2.4 4.12 4.12 0 002.81.85 9.28 9.28 0 002-.2 8 8 0 001.42-.42l.39 2.44a4.69 4.69 0 01-.68.26 8.29 8.29 0 01-1 .24c-.37.07-.77.14-1.19.19s-.86.07-1.3.07a8 8 0 01-3-.5 5.52 5.52 0 01-2.07-1.41 5.64 5.64 0 01-1.2-2.11 8.4 8.4 0 01-.4-2.64zm8.63-1.32a4.09 4.09 0 00-.17-1.17 2.92 2.92 0 00-.5-1 2.56 2.56 0 00-.82-.64 2.66 2.66 0 00-1.14-.23 2.53 2.53 0 00-1.2.26 2.67 2.67 0 00-.88.67 3.25 3.25 0 00-.55 1 5.29 5.29 0 00-.27 1.11z" fill="#333"/><path d="m134.75 155.9c-.25-.08-.59-.16-1-.25a7.54 7.54 0 00-1.51-.14 5.63 5.63 0 00-1.05.1 5 5 0 00-.77.17v10.3h-3v-12.24a17 17 0 012.15-.6 13.34 13.34 0 012.87-.29h.68l.79.1c.26 0 .52.09.76.15a4.26 4.26 0 01.59.16z" fill="#333"/><path d="m140.55 163.94a3.91 3.91 0 001.72-.28 1 1 0 00.54-1 1.25 1.25 0 00-.58-1.06 8.45 8.45 0 00-1.9-.91 13.91 13.91 0 01-1.49-.63 4.94 4.94 0 01-1.17-.77 3.06 3.06 0 01-.77-1.07 3.71 3.71 0 01-.29-1.54 3.37 3.37 0 011.31-2.79 5.6 5.6 0 013.54-1 11.68 11.68 0 013.71.62l-.54 2.41a7.78 7.78 0 00-1.26-.41 7.66 7.66 0 00-1.77-.18 3 3 0 00-1.47.31 1 1 0 00-.57.94 1.45 1.45 0 00.11.57 1.34 1.34 0 00.39.45 3.69 3.69 0 00.71.42 10.53 10.53 0 001.08.43 17.07 17.07 0 011.79.77 4.88 4.88 0 011.22.86 3 3 0 01.7 1.1 4.29 4.29 0 01.22 1.47 3.17 3.17 0 01-1.36 2.79 6.81 6.81 0 01-3.9 1 11.11 11.11 0 01-2.73-.28 13.67 13.67 0 01-1.45-.46l.52-2.48a12.5 12.5 0 001.59.51 7.85 7.85 0 002.1.21z" fill="#333"/><path d="m151.88 149.46a1.71 1.71 0 01-.54 1.33 1.94 1.94 0 01-2.58 0 1.71 1.71 0 01-.54-1.33 1.74 1.74 0 01.54-1.35 1.94 1.94 0 012.58 0 1.74 1.74 0 01.54 1.35zm-.32 16.62h-3v-12.86h3z" fill="#333"/><path d="m155.2 149.83 3-.49v3.88h4.57v2.49h-4.57v5.23a3.76 3.76 0 00.49 2.21 1.94 1.94 0 001.67.67 5.69 5.69 0 001.44-.17c.42-.12.75-.23 1-.32l.49 2.36a12.44 12.44 0 01-1.35.45 7.25 7.25 0 01-2 .23 6.38 6.38 0 01-2.3-.36 3.5 3.5 0 01-1.46-1.07 4.2 4.2 0 01-.76-1.7 10.34 10.34 0 01-.22-2.27z" fill="#333"/><path d="m169.9 152.9a7.41 7.41 0 012.48.37 3.94 3.94 0 011.61 1 3.85 3.85 0 01.86 1.61 7.93 7.93 0 01.26 2.07v7.79c-.46.1-1.16.22-2.08.36a21.12 21.12 0 01-3.13.21 9.33 9.33 0 01-2.12-.22 4.58 4.58 0 01-1.63-.71 3.4 3.4 0 01-1.06-1.28 4.5 4.5 0 01-.38-1.94 3.72 3.72 0 01.43-1.87 3.39 3.39 0 011.17-1.24 5.06 5.06 0 011.7-.69 9.64 9.64 0 012-.21 9.29 9.29 0 011 .06 8.92 8.92 0 011.16.21v-.42a4 4 0 00-.12-1 2.09 2.09 0 00-.43-.82 2 2 0 00-.81-.55 3.56 3.56 0 00-1.27-.2 11 11 0 00-1.89.15 8.45 8.45 0 00-1.4.34l-.37-2.41a11.45 11.45 0 011.64-.39 13.19 13.19 0 012.38-.22zm-2.19-1.79a1.71 1.71 0 01-1.16-.44 1.74 1.74 0 010-2.42 1.64 1.64 0 011.16-.46 1.68 1.68 0 011.17.46 1.71 1.71 0 010 2.42 1.76 1.76 0 01-1.17.44zm2.43 12.89a10.91 10.91 0 002.09-.15v-3.29a5.54 5.54 0 00-.71-.15 7.39 7.39 0 00-2 0 3.12 3.12 0 00-.91.27 1.61 1.61 0 00-.65.56 1.46 1.46 0 00-.25.89 1.55 1.55 0 00.67 1.46 3.32 3.32 0 001.76.41zm2.66-12.88a1.72 1.72 0 01-1.17-.44 1.69 1.69 0 010-2.42 1.65 1.65 0 011.17-.46 1.62 1.62 0 011.15.46 1.74 1.74 0 010 2.42 1.69 1.69 0 01-1.15.43z" fill="#333"/><path d="m178.6 149.83 3-.49v3.88h4.57v2.49h-4.57v5.23a3.76 3.76 0 00.49 2.21 1.94 1.94 0 001.67.67 5.63 5.63 0 001.44-.17c.42-.12.75-.23 1-.32l.49 2.36a11.73 11.73 0 01-1.35.45 7.25 7.25 0 01-2 .23 6.38 6.38 0 01-2.34-.37 3.5 3.5 0 01-1.46-1.07 4.34 4.34 0 01-.76-1.7 10.34 10.34 0 01-.22-2.27z" fill="#333"/><path d="m202.09 151.31a5 5 0 00-4 1.63 6.77 6.77 0 00-1.39 4.54 9.15 9.15 0 00.3 2.52 5.59 5.59 0 001 1.95 4.7 4.7 0 001.62 1.27 5.39 5.39 0 002.28.45c.54 0 1 0 1.4-.06a6.25 6.25 0 00.93-.16v-6.12h3.1v8.18a13.15 13.15 0 01-2.16.54 18.41 18.41 0 01-3.52.3 9.35 9.35 0 01-3.37-.59 7 7 0 01-2.59-1.72 7.92 7.92 0 01-1.66-2.78 11.28 11.28 0 01-.59-3.78 10.34 10.34 0 01.65-3.79 8.3 8.3 0 011.78-2.79 7.51 7.51 0 012.66-1.73 8.79 8.79 0 013.24-.59 12.16 12.16 0 012.11.16 13.16 13.16 0 011.58.35 7.31 7.31 0 011.1.42l.6.32-.94 2.53a7.89 7.89 0 00-1.83-.75 8.63 8.63 0 00-2.3-.3z" fill="#333"/><path d="m218.1 155.83a10.46 10.46 0 00-1-.26 7.62 7.62 0 00-1.52-.13 6.55 6.55 0 00-1 .09 6 6 0 00-.77.18v10.29h-3v-12.24a17 17 0 012.15-.6 13.37 13.37 0 012.87-.28 6 6 0 01.68 0c.27 0 .53.05.79.09s.52.09.76.15l.59.16z" fill="#333"/><path d="m225 152.83a7.22 7.22 0 012.49.37 3.7 3.7 0 012.47 2.64 8 8 0 01.25 2.08v7.79c-.45.1-1.15.22-2.07.36a21.17 21.17 0 01-3.14.21 9.22 9.22 0 01-2.11-.23 4.25 4.25 0 01-1.63-.71 3.24 3.24 0 01-1.06-1.28 4.33 4.33 0 01-.38-1.94 3.72 3.72 0 01.43-1.87 3.53 3.53 0 011.16-1.24 5.21 5.21 0 011.71-.69 10.35 10.35 0 012-.21 9.38 9.38 0 011 .07 11.32 11.32 0 011.16.2v-.49a3.93 3.93 0 00-.12-1 2 2 0 00-1.25-1.38 3.48 3.48 0 00-1.26-.19 12.13 12.13 0 00-1.89.14 8.75 8.75 0 00-1.41.35l-.36-2.41a11.45 11.45 0 011.64-.39 13 13 0 012.37-.18zm.25 11.09a10.91 10.91 0 002.09-.15v-3.3c-.16 0-.4-.09-.71-.14a6.48 6.48 0 00-2 0 3.12 3.12 0 00-.91.27 1.59 1.59 0 00-.65.55 1.52 1.52 0 00-.25.9 1.58 1.58 0 00.66 1.46 3.48 3.48 0 001.72.41z" fill="#333"/><path d="M242.8,155.24c-.33.34-.76.83-1.29,1.45s-1.1,1.31-1.71,2.08-1.22,1.55-1.83,2.38-1.17,1.62-1.66,2.37H243V166H232.72v-1.85a24.13,24.13,0,0,1,1.35-2.14c.54-.77,1.1-1.54,1.67-2.32s1.15-1.52,1.71-2.22,1.07-1.32,1.51-1.85H233v-2.48h9.76Z" fill="#333"/></g></g></svg>
