<svg xmlns="http://www.w3.org/2000/svg" xmlns:xlink="http://www.w3.org/1999/xlink" viewBox="0 0 256.28 170.66"><defs><linearGradient id="be252981-3bc0-4dd5-8f77-7da933f47eeb" x1="81.74" y1="75.17" x2="115.76" y2="66.92" gradientUnits="userSpaceOnUse"><stop offset="0.75" stop-color="#333" stop-opacity="0"/><stop offset="1" stop-color="#333" stop-opacity="0.3"/></linearGradient><linearGradient id="ec96e5ac-cb0d-4304-bcc4-67a4da56042f" x1="141.44" y1="72.4" x2="176.36" y2="-1.24" xlink:href="#be252981-3bc0-4dd5-8f77-7da933f47eeb"/></defs><title>Zeichenfläche 1</title><g style="isolation:isolate"><g id="aaf65e35-ab6b-48c7-aec6-8e24ac3a3d07" data-name="Ebene 1"><path d="M121.53,9.73l-25,84.69a3,3,0,0,1-2.9,2.21H69.29a3,3,0,0,1-2.92-2.32L51.13,36.86h-.27l-27,126.74a3,3,0,0,1-2.94,2.4H3a3,3,0,0,1-2.92-3.7L35.22,12a3,3,0,0,1,2.91-2.3H64.31a3,3,0,0,1,2.94,2.41l13.24,59h.28l16-57.35a5.31,5.31,0,0,1,5.15-4Z" fill="#007934"/><g style="mix-blend-mode:multiply"><path d="M121.53,9.73l-25,84.69a3,3,0,0,1-2.9,2.21H69.29a3,3,0,0,1-2.92-2.32L51.13,36.86h-.27l-27,126.74a3,3,0,0,1-2.94,2.4H3a3,3,0,0,1-2.92-3.7L35.22,12a3,3,0,0,1,2.91-2.3H64.31a3,3,0,0,1,2.94,2.41l13.24,59h.28l16-57.35a5.31,5.31,0,0,1,5.15-4Z" fill="url(#be252981-3bc0-4dd5-8f77-7da933f47eeb)"/></g><path d="M192.16,0H179a14,14,0,0,0-13.65,17.26l12.12,49.8c3.62,14.14-2.25,17.73-10.79,17.73-8.81,0-17.69-3.64-21.16-17.19-4.6-18-9-35.3-13.43-53.8a5.28,5.28,0,0,0-5.15-4.07H102a5.43,5.43,0,0,1,5.28,4.16c4.31,17.83,8.38,34.45,13.59,55.63,6.66,27.09,27.08,37.73,50.67,37.73,22.65,0,36.59-12.89,30.61-37.31L189.34,17.28C186.82,7,196.38,0,199.06,2.52A9.7,9.7,0,0,0,192.16,0" fill="#34b233"/><path d="M192.16,0H179a14,14,0,0,0-13.65,17.26l12.12,49.8c3.62,14.14-2.25,17.73-10.79,17.73-8.81,0-17.69-3.64-21.16-17.19-4.6-18-9-35.3-13.43-53.8a5.28,5.28,0,0,0-5.15-4.07H102a5.43,5.43,0,0,1,5.28,4.16c4.31,17.83,8.38,34.45,13.59,55.63,6.66,27.09,27.08,37.73,50.67,37.73,22.65,0,36.59-12.89,30.61-37.31L189.34,17.28C186.82,7,196.38,0,199.06,2.52A9.7,9.7,0,0,0,192.16,0" fill="url(#ec96e5ac-cb0d-4304-bcc4-67a4da56042f)" style="mix-blend-mode:multiply"/><path d="M192.16,0H179a14,14,0,0,1,14,14l2.64-8.17,6.66,2.74S201,0,192.16,0Z" fill="#ff7f45"/><path d="M66.17,123.43c.36.62.76,1.38,1.2,2.29s.9,1.84,1.35,2.84.92,2,1.37,3,.86,2,1.24,2.84l1.23-2.84c.44-1,.89-2,1.35-3s.91-1.94,1.35-2.84.85-1.67,1.21-2.29h2.79c.15,1.25.29,2.57.42,4s.26,2.83.37,4.3.2,2.94.3,4.43.17,2.93.23,4.33h-3q-.11-3-.24-6.12c-.09-2.09-.23-4.13-.42-6.09l-.63,1.35c-.25.52-.51,1.09-.79,1.71s-.56,1.25-.85,1.9-.56,1.29-.84,1.91-.52,1.19-.74,1.72l-.59,1.36H70.12l-.59-1.37c-.22-.54-.47-1.12-.74-1.74l-.84-1.9c-.29-.66-.57-1.29-.85-1.89l-.78-1.71c-.25-.53-.46-1-.64-1.34-.19,2-.33,4-.42,6.09s-.17,4.14-.24,6.12H62c.06-1.4.14-2.86.23-4.37s.2-3,.31-4.49.22-2.92.36-4.31.27-2.68.42-3.86Z" fill="#333"/><path d="M83.16,134.1a8.05,8.05,0,0,1,.51-3A6.06,6.06,0,0,1,85,129a5.48,5.48,0,0,1,1.92-1.28,5.84,5.84,0,0,1,2.21-.43,5.28,5.28,0,0,1,4.14,1.65,7.1,7.1,0,0,1,1.49,4.91c0,.17,0,.35,0,.56s0,.38,0,.55H86.24a3.35,3.35,0,0,0,1.09,2.39,4.15,4.15,0,0,0,2.82.85,9.21,9.21,0,0,0,2-.19,8,8,0,0,0,1.42-.42l.39,2.43a4.69,4.69,0,0,1-.68.26c-.28.09-.61.17-1,.25s-.76.13-1.19.18a11.2,11.2,0,0,1-1.3.07,7.79,7.79,0,0,1-3-.5,5.5,5.5,0,0,1-2.07-1.4,5.72,5.72,0,0,1-1.2-2.11A8.79,8.79,0,0,1,83.16,134.1Zm8.63-1.33a4.09,4.09,0,0,0-.17-1.17,2.74,2.74,0,0,0-.5-1,2.37,2.37,0,0,0-.81-.63,2.57,2.57,0,0,0-1.15-.24A2.65,2.65,0,0,0,88,130a2.56,2.56,0,0,0-.87.68,2.91,2.91,0,0,0-.56.95,5.29,5.29,0,0,0-.27,1.11Z" fill="#333"/><path d="M108.56,140.07a16.67,16.67,0,0,1-2.23.49,16.94,16.94,0,0,1-2.81.22,7.51,7.51,0,0,1-2.73-.46A5.58,5.58,0,0,1,98.74,139a5.93,5.93,0,0,1-1.31-2.12,8.08,8.08,0,0,1-.45-2.79,9.54,9.54,0,0,1,.38-2.76,6,6,0,0,1,1.12-2.13,5,5,0,0,1,1.79-1.36,5.87,5.87,0,0,1,2.44-.48,5.43,5.43,0,0,1,1.64.22,7.32,7.32,0,0,1,1.23.49v-6.17l3-.49ZM100,134a4.66,4.66,0,0,0,.93,3.08,3.16,3.16,0,0,0,2.58,1.12,10.55,10.55,0,0,0,1.22-.06,7.93,7.93,0,0,0,.82-.13v-7.38a4.39,4.39,0,0,0-1-.5,4,4,0,0,0-1.39-.24,2.66,2.66,0,0,0-2.37,1.11A5.29,5.29,0,0,0,100,134Z" fill="#333"/><path d="M115.36,123.85a1.71,1.71,0,0,1-.54,1.33,1.85,1.85,0,0,1-1.27.49,1.92,1.92,0,0,1-1.31-.49,1.93,1.93,0,0,1,0-2.68,1.88,1.88,0,0,1,1.31-.5,1.82,1.82,0,0,1,1.27.5A1.71,1.71,0,0,1,115.36,123.85ZM115,140.46h-3V127.61h3Z" fill="#333"/><path d="M117.72,134.05a7.8,7.8,0,0,1,.45-2.67,6.32,6.32,0,0,1,1.26-2.15,5.82,5.82,0,0,1,2-1.42,6.43,6.43,0,0,1,2.65-.52,9,9,0,0,1,3.44.66l-.64,2.44a6.45,6.45,0,0,0-1.17-.37,6.08,6.08,0,0,0-1.38-.15,3.26,3.26,0,0,0-2.66,1.09,4.69,4.69,0,0,0-.91,3.09,4.85,4.85,0,0,0,.86,3,3.42,3.42,0,0,0,2.9,1.12,8.29,8.29,0,0,0,1.5-.14,7.92,7.92,0,0,0,1.28-.37l.42,2.45a5.94,5.94,0,0,1-1.49.45,10.64,10.64,0,0,1-2,.19,7.44,7.44,0,0,1-2.87-.5,5.42,5.42,0,0,1-2-1.4,5.81,5.81,0,0,1-1.19-2.14A8.62,8.62,0,0,1,117.72,134.05Z" fill="#333"/><path d="M134.68,127.29a7.22,7.22,0,0,1,2.49.37,3.7,3.7,0,0,1,2.47,2.64,8,8,0,0,1,.26,2.08v7.79c-.46.1-1.16.22-2.08.36a22.72,22.72,0,0,1-3.14.2,9.24,9.24,0,0,1-2.11-.22,4.37,4.37,0,0,1-1.64-.71,3.3,3.3,0,0,1-1.05-1.28,4.33,4.33,0,0,1-.38-1.94,3.72,3.72,0,0,1,.43-1.87,3.45,3.45,0,0,1,1.16-1.24,5.12,5.12,0,0,1,1.71-.69,9.64,9.64,0,0,1,2-.21,9.38,9.38,0,0,1,1,.07,11.32,11.32,0,0,1,1.16.2v-.49a3.93,3.93,0,0,0-.12-1,2.15,2.15,0,0,0-.43-.82,2,2,0,0,0-.82-.56,3.48,3.48,0,0,0-1.26-.19,12.13,12.13,0,0,0-1.89.14,8.75,8.75,0,0,0-1.41.35l-.36-2.41a11.45,11.45,0,0,1,1.64-.39A12.12,12.12,0,0,1,134.68,127.29Zm.25,11.09a10.91,10.91,0,0,0,2.09-.15v-3.3a6.32,6.32,0,0,0-.71-.14,6.48,6.48,0,0,0-2,0,3.12,3.12,0,0,0-.91.27,1.59,1.59,0,0,0-.65.55,1.52,1.52,0,0,0-.25.9,1.56,1.56,0,0,0,.67,1.46A3.39,3.39,0,0,0,134.93,138.38Z" fill="#333"/><path d="M147.37,140.71a8.2,8.2,0,0,1-2.2-.29,3.38,3.38,0,0,1-1.39-.78,2.66,2.66,0,0,1-.73-1.25,6.35,6.35,0,0,1-.21-1.71v-14.8l3-.49v14.72a4.58,4.58,0,0,0,.08.91,1.34,1.34,0,0,0,.91,1,4.9,4.9,0,0,0,1,.21Z" fill="#333"/><path d="M69,166.43a8.12,8.12,0,0,1-3-.5,5.64,5.64,0,0,1-2.08-1.41,5.89,5.89,0,0,1-1.22-2.14,8.92,8.92,0,0,1-.39-2.71V149h3.12v10.35a6.74,6.74,0,0,0,.26,2,3.46,3.46,0,0,0,.74,1.34,3,3,0,0,0,1.13.76,4.18,4.18,0,0,0,1.46.24,4.38,4.38,0,0,0,1.48-.24,3,3,0,0,0,1.14-.76,3.59,3.59,0,0,0,.74-1.34,6.77,6.77,0,0,0,.25-2V149h3.13v10.64a8.61,8.61,0,0,1-.41,2.71,5.91,5.91,0,0,1-1.23,2.14,5.63,5.63,0,0,1-2.1,1.41A8.34,8.34,0,0,1,69,166.43Z" fill="#333"/><path d="M79,153.63a18.65,18.65,0,0,1,2.23-.47,19.08,19.08,0,0,1,3-.22,6.92,6.92,0,0,1,2.63.43,4.08,4.08,0,0,1,1.68,1.2,4.58,4.58,0,0,1,.89,1.87,10.57,10.57,0,0,1,.26,2.4v7.22h-3V159.3a9.77,9.77,0,0,0-.13-1.75,3.13,3.13,0,0,0-.44-1.18,1.79,1.79,0,0,0-.84-.67,3.48,3.48,0,0,0-1.29-.21,9.75,9.75,0,0,0-1.18.08l-.91.12v10.37H79Z" fill="#333"/><path d="M96.27,149.45a1.71,1.71,0,0,1-.54,1.32,1.86,1.86,0,0,1-1.28.5,1.88,1.88,0,0,1-1.31-.5,1.68,1.68,0,0,1-.54-1.32,1.71,1.71,0,0,1,.54-1.35,1.88,1.88,0,0,1,1.31-.5,1.86,1.86,0,0,1,1.28.5A1.75,1.75,0,0,1,96.27,149.45ZM96,166.06H93V153.21h3Z" fill="#333"/><path d="M103.31,166.06q-1.23-2.52-2.53-5.81a72.55,72.55,0,0,1-2.35-7h3.17c.18.72.39,1.49.63,2.32s.49,1.66.76,2.48.55,1.63.84,2.41.56,1.48.8,2.1c.25-.62.52-1.32.79-2.1s.56-1.58.83-2.41.53-1.65.78-2.48.46-1.6.64-2.32h3.07a72.55,72.55,0,0,1-2.35,7q-1.31,3.28-2.53,5.81Z" fill="#333"/><path d="M111.73,159.7a8.06,8.06,0,0,1,.5-3,6.21,6.21,0,0,1,1.34-2.12,5.58,5.58,0,0,1,1.92-1.28,5.84,5.84,0,0,1,2.21-.43,5.28,5.28,0,0,1,4.14,1.65,7.1,7.1,0,0,1,1.49,4.91c0,.17,0,.35,0,.56s0,.38,0,.55H114.8a3.35,3.35,0,0,0,1.09,2.39,4.15,4.15,0,0,0,2.82.85,9.37,9.37,0,0,0,2-.19,9.13,9.13,0,0,0,1.41-.42l.39,2.43a5,5,0,0,1-.67.26c-.29.09-.62.17-1,.25s-.76.13-1.19.18a11.2,11.2,0,0,1-1.3.07,7.79,7.79,0,0,1-3-.5,5.5,5.5,0,0,1-2.07-1.4,5.68,5.68,0,0,1-1.2-2.12A8.68,8.68,0,0,1,111.73,159.7Zm8.62-1.33a3.76,3.76,0,0,0-.17-1.17,2.74,2.74,0,0,0-.5-1,2.42,2.42,0,0,0-.81-.64,2.94,2.94,0,0,0-2.35,0,2.56,2.56,0,0,0-.87.68,2.91,2.91,0,0,0-.56.95,5.29,5.29,0,0,0-.27,1.11Z" fill="#333"/><path d="M133.18,155.89a9.13,9.13,0,0,0-1-.26,7.39,7.39,0,0,0-1.51-.14,6.51,6.51,0,0,0-1,.1,6.83,6.83,0,0,0-.78.18v10.29h-3V153.82a17,17,0,0,1,2.15-.6,13.27,13.27,0,0,1,2.86-.28l.69,0,.79.1c.26,0,.52.09.76.15l.59.16Z" fill="#333"/><path d="M139,163.93a3.86,3.86,0,0,0,1.72-.29,1,1,0,0,0,.54-1,1.26,1.26,0,0,0-.58-1.06,8.51,8.51,0,0,0-1.9-.9c-.54-.2-1-.41-1.49-.63a5,5,0,0,1-1.17-.78,3.23,3.23,0,0,1-.77-1.07,3.64,3.64,0,0,1-.28-1.53,3.34,3.34,0,0,1,1.3-2.79,5.6,5.6,0,0,1,3.54-1,12.13,12.13,0,0,1,3.71.61l-.54,2.41a7.71,7.71,0,0,0-1.25-.4,7.22,7.22,0,0,0-1.77-.19,3.16,3.16,0,0,0-1.48.31,1,1,0,0,0-.56,1,1.25,1.25,0,0,0,.11.56,1.16,1.16,0,0,0,.38.46,4.05,4.05,0,0,0,.71.41,10.1,10.1,0,0,0,1.08.43,16.3,16.3,0,0,1,1.8.78,4.74,4.74,0,0,1,1.21.86,3,3,0,0,1,.71,1.09,4.57,4.57,0,0,1,.22,1.48,3.18,3.18,0,0,1-1.37,2.79,6.8,6.8,0,0,1-3.89.94,10.64,10.64,0,0,1-2.73-.28c-.69-.19-1.17-.34-1.45-.45l.51-2.49a12.93,12.93,0,0,0,1.59.52A8.28,8.28,0,0,0,139,163.93Z" fill="#333"/><path d="M150.24,149.45a1.68,1.68,0,0,1-.54,1.32,1.82,1.82,0,0,1-1.28.5,1.87,1.87,0,0,1-1.3-.5,1.68,1.68,0,0,1-.54-1.32,1.71,1.71,0,0,1,.54-1.35,1.87,1.87,0,0,1,1.3-.5,1.82,1.82,0,0,1,1.28.5A1.71,1.71,0,0,1,150.24,149.45Zm-.32,16.61h-3V153.21h3Z" fill="#333"/><path d="M153.51,149.82l3-.5v3.89h4.57v2.48h-4.57v5.24a3.78,3.78,0,0,0,.49,2.21,1.93,1.93,0,0,0,1.67.66,5.27,5.27,0,0,0,1.44-.17,8.33,8.33,0,0,0,1-.32l.49,2.36a10.9,10.9,0,0,1-1.35.46,7.59,7.59,0,0,1-2,.23A6.12,6.12,0,0,1,156,166a3.45,3.45,0,0,1-1.47-1.07,4.27,4.27,0,0,1-.76-1.7,11,11,0,0,1-.22-2.27Z" fill="#333"/><path d="M175,153.21a94.14,94.14,0,0,1-4.61,13.27,13.57,13.57,0,0,1-1,1.89,5.72,5.72,0,0,1-1.16,1.31,4.26,4.26,0,0,1-1.43.75,6.6,6.6,0,0,1-1.82.23,6.23,6.23,0,0,1-1.36-.15,4.41,4.41,0,0,1-1-.32l.54-2.38a4.77,4.77,0,0,0,1.75.34,2.7,2.7,0,0,0,1.81-.55,4.52,4.52,0,0,0,1.15-1.71q-1.41-2.7-2.7-5.9a67.29,67.29,0,0,1-2.31-6.78H166c.17.69.37,1.43.61,2.24s.49,1.61.77,2.44.58,1.65.89,2.47.63,1.58.94,2.29q.78-2.19,1.47-4.66c.46-1.65.87-3.24,1.25-4.78Z" fill="#333"/><path d="M191.88,159.62a8.4,8.4,0,0,1-.44,2.78,6.22,6.22,0,0,1-1.26,2.14,5.67,5.67,0,0,1-2,1.38,6.7,6.7,0,0,1-5,0,5.73,5.73,0,0,1-1.94-1.38A6.22,6.22,0,0,1,180,162.4a8.57,8.57,0,0,1,0-5.54,6.13,6.13,0,0,1,1.27-2.13,5.62,5.62,0,0,1,2-1.36,6.27,6.27,0,0,1,2.48-.48,6.44,6.44,0,0,1,2.5.48,5.49,5.49,0,0,1,1.95,1.36,6.45,6.45,0,0,1,1.27,2.13A8.07,8.07,0,0,1,191.88,159.62Zm-3,0a5,5,0,0,0-.82-3,2.92,2.92,0,0,0-4.6,0,5,5,0,0,0-.82,3,5.14,5.14,0,0,0,.82,3.08,2.91,2.91,0,0,0,4.6,0A5.14,5.14,0,0,0,188.83,159.62Z" fill="#333"/><path d="M199.57,147a8.18,8.18,0,0,1,1.82.18,10.66,10.66,0,0,1,1.18.34L202,150a5.52,5.52,0,0,0-1-.32,5.68,5.68,0,0,0-1.2-.12,3.07,3.07,0,0,0-1.2.21,2,2,0,0,0-.79.58,2.35,2.35,0,0,0-.42.9,5.11,5.11,0,0,0-.12,1.14v.86H202v2.48h-4.67v10.37h-3V152.3a5.54,5.54,0,0,1,1.3-3.9A5.1,5.1,0,0,1,199.57,147Z" fill="#333"/><path d="M215.8,151.36a5,5,0,0,0-4,1.64,6.76,6.76,0,0,0-1.39,4.53,9,9,0,0,0,.33,2.52,5.55,5.55,0,0,0,1,2,4.5,4.5,0,0,0,1.63,1.26,5.17,5.17,0,0,0,2.27.46c.54,0,1,0,1.4-.06a6.25,6.25,0,0,0,.93-.16v-6.12H221v8.18a12.88,12.88,0,0,1-2.16.54,18.41,18.41,0,0,1-3.52.3,9.26,9.26,0,0,1-3.36-.59,7,7,0,0,1-2.6-1.72,8,8,0,0,1-1.66-2.78,11.3,11.3,0,0,1-.59-3.79,10.33,10.33,0,0,1,.65-3.78,8.17,8.17,0,0,1,1.79-2.79,7.47,7.47,0,0,1,2.65-1.73,8.8,8.8,0,0,1,3.25-.59,12.12,12.12,0,0,1,2.1.16,13.16,13.16,0,0,1,1.58.35,6.06,6.06,0,0,1,1.1.42l.6.32-.93,2.53a8.17,8.17,0,0,0-1.84-.75A8.61,8.61,0,0,0,215.8,151.36Z" fill="#333"/><path d="M231.72,155.89a9.13,9.13,0,0,0-1-.26,7.39,7.39,0,0,0-1.51-.14,6.51,6.51,0,0,0-1,.1,6.83,6.83,0,0,0-.78.18v10.29h-3V153.82a17,17,0,0,1,2.15-.6,13.27,13.27,0,0,1,2.86-.28l.69,0,.79.1c.26,0,.51.09.76.15l.59.16Z" fill="#333"/><path d="M238.39,152.89a7.16,7.16,0,0,1,2.48.37,3.93,3.93,0,0,1,1.61,1,3.85,3.85,0,0,1,.86,1.61,8,8,0,0,1,.26,2.08v7.79c-.46.1-1.16.22-2.08.36a22.67,22.67,0,0,1-3.13.2,9.27,9.27,0,0,1-2.12-.22,4.25,4.25,0,0,1-1.63-.71,3.32,3.32,0,0,1-1.06-1.28,4.47,4.47,0,0,1-.38-1.94,3.72,3.72,0,0,1,.43-1.87,3.47,3.47,0,0,1,1.17-1.24,5.06,5.06,0,0,1,1.7-.69,9.6,9.6,0,0,1,3.07-.15c.36.05.74.12,1.15.21V158a3.93,3.93,0,0,0-.12-1,2,2,0,0,0-.43-.82,2.06,2.06,0,0,0-.81-.56,3.58,3.58,0,0,0-1.27-.19,12.13,12.13,0,0,0-1.89.14,8.34,8.34,0,0,0-1.4.35l-.37-2.41a11.45,11.45,0,0,1,1.64-.39A12.3,12.3,0,0,1,238.39,152.89Zm.24,11.08a11.08,11.08,0,0,0,2.09-.14v-3.3a4.4,4.4,0,0,0-.71-.14,6.53,6.53,0,0,0-1-.08,6.85,6.85,0,0,0-1,.08,2.85,2.85,0,0,0-.91.27,1.59,1.59,0,0,0-.65.55,1.52,1.52,0,0,0-.25.9,1.56,1.56,0,0,0,.67,1.46A3.42,3.42,0,0,0,238.63,164Z" fill="#333"/><path d="M256.13,155.3c-.33.34-.76.83-1.29,1.45s-1.1,1.31-1.71,2.07-1.21,1.56-1.83,2.39-1.17,1.62-1.66,2.37h6.64v2.48H246.05v-1.84a21.09,21.09,0,0,1,1.36-2.14c.54-.77,1.09-1.54,1.67-2.32s1.14-1.52,1.71-2.23,1.07-1.31,1.51-1.84h-5.93v-2.48h9.76Z" fill="#333"/></g></g></svg>